<svg width="442" height="442" viewBox="0 0 442 442" fill="none" xmlns="http://www.w3.org/2000/svg">
<path d="M220.995 276.252C190.44 276.252 165.583 251.42 165.583 220.897C165.583 190.373 190.44 165.541 220.995 165.541C251.549 165.541 276.406 190.373 276.406 220.897C276.406 251.42 251.549 276.252 220.995 276.252ZM220.995 175.891C196.157 175.891 175.954 196.075 175.954 220.887C175.954 245.699 196.157 265.882 220.995 265.882C245.832 265.882 266.036 245.699 266.036 220.887C266.036 196.075 245.832 175.891 220.995 175.891Z" fill="#FFFCA6"/>
<path d="M235.674 256.293C255.241 248.196 264.533 225.785 256.428 206.238C248.323 186.69 225.89 177.407 206.322 185.504C186.755 193.601 177.462 216.011 185.568 235.559C193.673 255.107 216.106 264.39 235.674 256.293Z" fill="#FFFCA6"/>
<path d="M220.995 291.24C182.168 291.24 150.57 259.684 150.57 220.887C150.57 182.089 182.158 150.533 220.995 150.533C259.832 150.533 291.42 182.089 291.42 220.887C291.42 259.684 259.832 291.24 220.995 291.24ZM220.995 159.999C187.388 159.999 160.045 187.314 160.045 220.887C160.045 254.459 187.388 281.775 220.995 281.775C254.602 281.775 281.944 254.459 281.944 220.887C281.944 187.314 254.602 159.999 220.995 159.999Z" fill="#FFFCA6"/>
<path d="M220.995 306.239C173.886 306.239 135.566 267.958 135.566 220.897C135.566 173.835 173.886 135.554 220.995 135.554C268.104 135.554 306.424 173.845 306.424 220.897C306.424 267.948 268.094 306.239 220.995 306.239ZM220.995 144.116C178.618 144.116 144.137 178.563 144.137 220.897C144.137 263.23 178.618 297.677 220.995 297.677C263.371 297.677 297.853 263.23 297.853 220.897C297.853 178.563 263.371 144.116 220.995 144.116Z" fill="#FFFCA6"/>
<path d="M220.995 321.238C165.613 321.238 120.553 276.222 120.553 220.897C120.553 165.571 165.613 120.556 220.995 120.556C276.377 120.556 321.437 165.571 321.437 220.897C321.437 276.222 276.377 321.238 220.995 321.238ZM220.995 128.224C169.849 128.224 128.228 169.793 128.228 220.897C128.228 272.001 169.839 313.57 220.995 313.57C272.151 313.57 313.762 272.001 313.762 220.897C313.762 169.793 272.151 128.224 220.995 128.224Z" fill="#FFFCA6"/>
<path d="M220.995 336.226C157.331 336.226 105.539 284.486 105.539 220.887C105.539 157.287 157.331 105.548 220.995 105.548C284.659 105.548 336.451 157.287 336.451 220.887C336.451 284.486 284.659 336.226 220.995 336.226ZM220.995 112.332C161.079 112.332 112.33 161.032 112.33 220.887C112.33 280.742 161.079 329.442 220.995 329.442C280.91 329.442 329.66 280.742 329.66 220.887C329.66 161.032 280.91 112.332 220.995 112.332Z" fill="#FFFCA6"/>
<path d="M220.995 351.225C149.059 351.225 90.535 292.76 90.535 220.897C90.535 149.033 149.059 90.5591 220.995 90.5591C292.931 90.5591 351.465 149.023 351.465 220.897C351.465 292.77 292.941 351.225 220.995 351.225ZM220.995 96.4393C152.3 96.4393 96.4212 152.271 96.4212 220.887C96.4212 289.502 152.3 345.334 220.995 345.334C289.69 345.334 345.569 289.512 345.569 220.887C345.569 152.261 289.68 96.4393 220.995 96.4393Z" fill="#FFFCA6"/>
<path d="M220.995 366.223C140.776 366.223 75.5212 301.025 75.5212 220.897C75.5212 140.769 140.786 75.5708 220.995 75.5708C301.204 75.5708 366.468 140.769 366.468 220.897C366.468 301.025 301.204 366.223 220.995 366.223ZM220.995 80.5571C143.53 80.5571 80.5125 143.511 80.5125 220.897C80.5125 298.283 143.53 361.237 220.995 361.237C298.459 361.237 361.477 298.283 361.477 220.897C361.477 143.511 298.459 80.5571 220.995 80.5571Z" fill="#FFFCA6"/>
<path d="M220.995 381.212C132.504 381.212 60.5077 309.289 60.5077 220.887C60.5077 132.486 132.504 60.5625 220.995 60.5625C309.486 60.5625 381.482 132.486 381.482 220.887C381.482 309.289 309.486 381.212 220.995 381.212ZM220.995 64.6647C134.761 64.6647 64.6041 134.75 64.6041 220.897C64.6041 307.044 134.761 377.13 220.995 377.13C307.229 377.13 377.386 307.044 377.386 220.897C377.386 134.75 307.229 64.6647 220.995 64.6647Z" fill="#FFFCA6"/>
<path d="M220.995 396.21C124.221 396.21 45.4939 317.562 45.4939 220.887C45.4939 124.211 124.221 45.5637 220.995 45.5637C317.768 45.5637 396.496 124.211 396.496 220.887C396.496 317.562 317.768 396.21 220.995 396.21ZM220.995 48.772C125.991 48.772 48.7055 125.979 48.7055 220.887C48.7055 315.794 125.991 393.002 220.995 393.002C315.999 393.002 393.284 315.794 393.284 220.887C393.284 125.979 315.999 48.772 220.995 48.772Z" fill="#FFFCA6"/>
<path d="M220.995 411.208C115.949 411.208 30.4901 325.836 30.4901 220.897C30.4901 115.957 115.949 30.585 220.995 30.585C326.041 30.585 411.499 115.957 411.499 220.897C411.499 325.836 326.041 411.208 220.995 411.208ZM220.995 32.8794C117.221 32.8794 32.7969 117.219 32.7969 220.887C32.7969 324.555 117.221 408.894 220.995 408.894C324.768 408.894 409.193 324.555 409.193 220.887C409.193 117.219 324.768 32.8794 220.995 32.8794Z" fill="#FFFCA6"/>
<path d="M220.995 426.207C107.676 426.207 15.4767 334.11 15.4767 220.897C15.4767 107.683 107.676 15.5864 220.995 15.5864C334.313 15.5864 426.513 107.693 426.513 220.897C426.513 334.1 334.313 426.207 220.995 426.207ZM220.995 16.9969C108.452 16.9969 16.8885 108.468 16.8885 220.897C16.8885 333.326 108.452 424.796 220.995 424.796C333.538 424.796 425.101 333.326 425.101 220.897C425.101 108.468 333.538 16.9969 220.995 16.9969Z" fill="#FFFCA6"/>
<path d="M220.995 441.196C162.094 441.196 106.712 418.281 65.0615 376.672C23.411 335.064 0.47287 279.739 0.47287 220.897C0.47287 162.055 23.411 106.73 65.0615 65.1214C106.712 23.513 162.094 0.598145 220.995 0.598145C279.896 0.598145 335.278 23.513 376.928 65.1214C418.579 106.73 441.517 162.055 441.517 220.897C441.517 279.739 418.579 335.064 376.928 376.672C335.278 418.281 279.896 441.196 220.995 441.196ZM220.995 1.10471C99.6824 1.10471 0.979953 99.6973 0.979953 220.897C0.979953 342.096 99.6725 440.689 220.995 440.689C342.317 440.689 441.01 342.096 441.01 220.897C441.01 99.6973 342.307 1.10471 220.995 1.10471Z" fill="#FFFCA6"/>
</svg>
